<svg width="25" height="19" viewBox="0 0 25 19" fill="none" xmlns="http://www.w3.org/2000/svg">
<path d="M24.287 12.942L18.8182 11.2249C18.5846 11.152 18.3249 11.1366 18.0783 11.1812C17.8318 11.2257 17.6116 11.3277 17.451 11.4718L15.0291 13.6396C11.2281 12.3267 8.16919 10.0857 6.37706 7.30111L9.3361 5.52682C9.53321 5.40937 9.67272 5.24807 9.73352 5.06734C9.79431 4.88661 9.77307 4.6963 9.67302 4.5252L7.32923 0.518728C7.21942 0.334291 7.0252 0.183703 6.78007 0.0929329C6.53494 0.00216247 6.25426 -0.0231018 5.98643 0.0214966L0.908219 0.880026C0.649996 0.92371 0.419609 1.03023 0.25466 1.18219C0.0897111 1.33415 -5.94839e-05 1.52258 2.95718e-08 1.71673C2.95718e-08 10.8923 10.1515 18.315 22.6566 18.315C22.9217 18.3151 23.1791 18.2494 23.3866 18.1285C23.5941 18.0077 23.7396 17.8388 23.7992 17.6496L24.9711 13.9293C25.0316 13.7321 24.9964 13.5257 24.8715 13.3455C24.7467 13.1653 24.54 13.0226 24.287 12.942Z" fill="#FFA90F"/>
</svg>
