<svg width="26" height="19" viewBox="0 0 26 19" fill="none" xmlns="http://www.w3.org/2000/svg">
<path d="M7.22222 16.0249C6.06667 16.0249 4.91111 15.2236 4.33333 14.8802C1.44444 13.2778 0.577778 12.7054 0 12.3621V17.1695C0 17.8016 0.64684 18.3141 1.44444 18.3141H13C13.7976 18.3141 14.4444 17.8016 14.4444 17.1695V12.3621C13.8667 12.7054 13 13.2778 10.1111 14.8802C9.53333 15.2236 8.37778 16.0249 7.22222 16.0249ZM13 9.15707H1.44444C0.64684 9.15707 0 9.66966 0 10.3017V10.874C1.15556 11.5608 1.01111 11.5608 5.2 13.9645C5.63333 14.1935 6.5 14.8802 7.22222 14.8802C7.94444 14.8802 8.81111 14.1935 9.24444 14.079C13.4333 11.6753 13.2889 11.6753 14.4444 10.9885V10.3017C14.4444 9.66966 13.7976 9.15707 13 9.15707ZM24.5556 5.72317H10.1111C9.31351 5.72317 8.66667 6.23575 8.66667 6.86781V8.01244H13C14.4991 8.01244 15.735 8.92171 15.8758 10.0807L15.8889 10.0728V14.8802H24.5556C25.3532 14.8802 26 14.3677 26 13.7356V6.86781C26 6.23575 25.3532 5.72317 24.5556 5.72317ZM23.1111 10.3017H20.2222V8.01244H23.1111V10.3017ZM7.22222 6.86781C7.22222 5.60549 8.51816 4.57854 10.1111 4.57854H20.2222V1.14463C20.2222 0.512582 19.5754 0 18.7778 0H4.33333C3.53573 0 2.88889 0.512582 2.88889 1.14463V8.01244H7.22222V6.86781Z" fill="#FFA90F"/>
</svg>
