<svg width="1000" height="525" viewBox="0 0 1000 525" fill="none" xmlns="http://www.w3.org/2000/svg">
<path d="M854.197 12.6104H858.559V14.4902H854.197V19.4316H852.199V14.4902H847.838V12.6104H852.199V8.04492H854.197V12.6104Z" fill="#FF7152"/>
<path d="M854.197 47.6104H858.559V49.4902H854.197V54.4316H852.199V49.4902H847.838V47.6104H852.199V43.0449H854.197V47.6104Z" fill="#E5E5E5"/>
<path d="M854.197 82.6104H858.559V84.4902H854.197V89.4316H852.199V84.4902H847.838V82.6104H852.199V78.0449H854.197V82.6104Z" fill="#E5E5E5"/>
<path d="M889.197 12.6104H893.559V14.4902H889.197V19.4316H887.199V14.4902H882.838V12.6104H887.199V8.04492H889.197V12.6104Z" fill="#E5E5E5"/>
<path d="M889.197 47.6104H893.559V49.4902H889.197V54.4316H887.199V49.4902H882.838V47.6104H887.199V43.0449H889.197V47.6104Z" fill="#E5E5E5"/>
<path d="M889.197 82.6104H893.559V84.4902H889.197V89.4316H887.199V84.4902H882.838V82.6104H887.199V78.0449H889.197V82.6104Z" fill="#E5E5E5"/>
<path d="M889.197 117.61H893.559V119.49H889.197V124.432H887.199V119.49H882.838V117.61H887.199V113.045H889.197V117.61Z" fill="#E5E5E5"/>
<path d="M924.197 12.6104H928.559V14.4902H924.197V19.4316H922.199V14.4902H917.838V12.6104H922.199V8.04492H924.197V12.6104Z" fill="#E5E5E5"/>
<path d="M924.197 47.6104H928.559V49.4902H924.197V54.4316H922.199V49.4902H917.838V47.6104H922.199V43.0449H924.197V47.6104Z" fill="#E5E5E5"/>
<path d="M924.197 82.6104H928.559V84.4902H924.197V89.4316H922.199V84.4902H917.838V82.6104H922.199V78.0449H924.197V82.6104Z" fill="#6246E5"/>
<path d="M924.197 117.61H928.559V119.49H924.197V124.432H922.199V119.49H917.838V117.61H922.199V113.045H924.197V117.61Z" fill="#E5E5E5"/>
<path d="M924.197 152.61H928.559V154.49H924.197V159.432H922.199V154.49H917.838V152.61H922.199V148.045H924.197V152.61Z" fill="#E5E5E5"/>
<path d="M959.197 12.6104H963.559V14.4902H959.197V19.4316H957.199V14.4902H952.838V12.6104H957.199V8.04492H959.197V12.6104Z" fill="#E5E5E5"/>
<path d="M959.197 47.6104H963.559V49.4902H959.197V54.4316H957.199V49.4902H952.838V47.6104H957.199V43.0449H959.197V47.6104Z" fill="#E5E5E5"/>
<path d="M959.197 82.6104H963.559V84.4902H959.197V89.4316H957.199V84.4902H952.838V82.6104H957.199V78.0449H959.197V82.6104Z" fill="#E5E5E5"/>
<path d="M959.197 117.61H963.559V119.49H959.197V124.432H957.199V119.49H952.838V117.61H957.199V113.045H959.197V117.61Z" fill="#E5E5E5"/>
<path d="M959.197 152.61H963.559V154.49H959.197V159.432H957.199V154.49H952.838V152.61H957.199V148.045H959.197V152.61Z" fill="#E5E5E5"/>
<path d="M994.197 12.6104H998.559V14.4902H994.197V19.4316H992.199V14.4902H987.838V12.6104H992.199V8.04492H994.197V12.6104Z" fill="#E5E5E5"/>
<path d="M994.197 47.6104H998.559V49.4902H994.197V54.4316H992.199V49.4902H987.838V47.6104H992.199V43.0449H994.197V47.6104Z" fill="#E5E5E5"/>
<path d="M994.197 82.6104H998.559V84.4902H994.197V89.4316H992.199V84.4902H987.838V82.6104H992.199V78.0449H994.197V82.6104Z" fill="#E5E5E5"/>
<path d="M994.197 117.61H998.559V119.49H994.197V124.432H992.199V119.49H987.838V117.61H992.199V113.045H994.197V117.61Z" fill="#E5E5E5"/>
<path d="M994.197 152.61H998.559V154.49H994.197V159.432H992.199V154.49H987.838V152.61H992.199V148.045H994.197V152.61Z" fill="#E5E5E5"/>
<path d="M0 455C0 438.431 13.4315 425 30 425H100V515C100 520.523 95.5228 525 90 525H0V455Z" fill="#DF6951"/>
</svg>
