<svg width="47" height="48" viewBox="0 0 47 48" fill="none" xmlns="http://www.w3.org/2000/svg">
<rect width="47" height="48" rx="13" fill="#F15A2B"/>
<path d="M36.2866 29.6656L30.8179 27.3218C30.5842 27.2223 30.3246 27.2013 30.078 27.262C29.8315 27.3228 29.6113 27.462 29.4507 27.6587L27.0288 30.6177C23.2279 28.8256 20.169 25.7668 18.377 21.9659L21.3359 19.544C21.533 19.3837 21.6726 19.1635 21.7333 18.9168C21.7941 18.6701 21.7729 18.4103 21.6729 18.1768L19.3291 12.7081C19.2193 12.4563 19.0251 12.2508 18.78 12.1269C18.5348 12.003 18.2542 11.9685 17.9863 12.0293L12.9082 13.2012C12.65 13.2608 12.4196 13.4062 12.2547 13.6137C12.0897 13.8211 11.9999 14.0783 12 14.3433C12 26.8677 22.1514 36.9996 34.6562 36.9996C34.9213 36.9997 35.1787 36.91 35.3862 36.7451C35.5937 36.5801 35.7392 36.3497 35.7988 36.0914L36.9707 31.0132C37.0312 30.7441 36.996 30.4623 36.8711 30.2163C36.7463 29.9704 36.5396 29.7756 36.2866 29.6656Z" fill="white"/>
</svg>
