<svg width="47" height="48" viewBox="0 0 47 48" fill="none" xmlns="http://www.w3.org/2000/svg">
<rect width="47" height="48" rx="13" fill="#006380"/>
<path d="M34.75 15H12.25C11.5598 15 11 15.5598 11 16.25V31.25C11 31.9402 11.5598 32.5 12.25 32.5H34.75C35.4402 32.5 36 31.9402 36 31.25V16.25C36 15.5598 35.4402 15 34.75 15ZM17.875 26.5578V27.1875C17.875 27.3602 17.7352 27.5 17.5625 27.5H16.9375C16.7648 27.5 16.625 27.3602 16.625 27.1875V26.5512C16.184 26.5285 15.7551 26.3746 15.3996 26.1078C15.2473 25.9934 15.2395 25.7652 15.3773 25.6336L15.8363 25.1957C15.9445 25.0926 16.1055 25.0879 16.232 25.1672C16.3832 25.2617 16.5547 25.3125 16.7328 25.3125H17.8309C18.0848 25.3125 18.2918 25.0813 18.2918 24.7973C18.2918 24.5648 18.1508 24.3602 17.9492 24.3L16.1914 23.7727C15.4652 23.5547 14.9578 22.8578 14.9578 22.0777C14.9578 21.1199 15.702 20.3418 16.6246 20.3172V19.6875C16.6246 19.5148 16.7645 19.375 16.9371 19.375H17.5621C17.7348 19.375 17.8746 19.5148 17.8746 19.6875V20.3238C18.3156 20.3465 18.7445 20.5 19.1 20.7672C19.2523 20.8816 19.2602 21.1098 19.1223 21.2414L18.6633 21.6793C18.5551 21.7824 18.3941 21.7871 18.2676 21.7078C18.1164 21.6129 17.9449 21.5625 17.7668 21.5625H16.6687C16.4148 21.5625 16.2078 21.7938 16.2078 22.0777C16.2078 22.3102 16.3488 22.5148 16.5504 22.575L18.3082 23.1023C19.0344 23.3203 19.5418 24.0172 19.5418 24.7973C19.5418 25.7555 18.7977 26.5332 17.875 26.5578ZM27.25 25.9375C27.25 26.1102 27.1102 26.25 26.9375 26.25H22.5625C22.3898 26.25 22.25 26.1102 22.25 25.9375V25.3125C22.25 25.1398 22.3898 25 22.5625 25H26.9375C27.1102 25 27.25 25.1398 27.25 25.3125V25.9375ZM33.5 25.9375C33.5 26.1102 33.3602 26.25 33.1875 26.25H30.0625C29.8898 26.25 29.75 26.1102 29.75 25.9375V25.3125C29.75 25.1398 29.8898 25 30.0625 25H33.1875C33.3602 25 33.5 25.1398 33.5 25.3125V25.9375ZM33.5 22.1875C33.5 22.3602 33.3602 22.5 33.1875 22.5H22.5625C22.3898 22.5 22.25 22.3602 22.25 22.1875V21.5625C22.25 21.3898 22.3898 21.25 22.5625 21.25H33.1875C33.3602 21.25 33.5 21.3898 33.5 21.5625V22.1875Z" fill="white"/>
</svg>
