<svg width="24" height="20" viewBox="0 0 24 20" fill="none" xmlns="http://www.w3.org/2000/svg">
<path d="M12 0C5.37097 0 0 4.47137 0 9.99008C0 15.5088 5.37097 19.9802 12 19.9802C18.629 19.9802 24 15.5088 24 9.99008C24 4.47137 18.629 0 12 0ZM14.7629 14.1029L10.4952 11.5208C10.3452 11.4282 10.2581 11.2832 10.2581 11.1301V4.35052C10.2581 4.08465 10.5194 3.86713 10.8387 3.86713H13.1613C13.4806 3.86713 13.7419 4.08465 13.7419 4.35052V9.89743L16.8145 11.7585C17.0758 11.9156 17.129 12.2177 16.9403 12.4352L15.5758 13.9982C15.3871 14.2117 15.0242 14.26 14.7629 14.1029Z" fill="#FFA90F"/>
</svg>
